<svg width="32" height="32" viewBox="0 0 32 32" fill="none" xmlns="http://www.w3.org/2000/svg">
<path d="M17.8161 22.1236C17.5162 22.4092 17.5046 22.884 17.7903 23.1839C18.0759 23.4839 18.5507 23.4955 18.8506 23.2098L17.8161 22.1236ZM25.8506 16.5431C26.1506 16.2575 26.1621 15.7827 25.8765 15.4828C25.5908 15.1828 25.1161 15.1713 24.8161 15.4569L25.8506 16.5431ZM24.8161 16.5431C25.1161 16.8288 25.5908 16.8172 25.8765 16.5173C26.1621 16.2173 26.1506 15.7426 25.8506 15.4569L24.8161 16.5431ZM18.8506 8.79025C18.5507 8.50459 18.0759 8.51616 17.7903 8.81611C17.5046 9.11606 17.5162 9.59079 17.8161 9.87646L18.8506 8.79025ZM25.3334 16.75C25.7476 16.75 26.0834 16.4142 26.0834 16C26.0834 15.5858 25.7476 15.25 25.3334 15.25V16.75ZM6.66671 15.25C6.25249 15.25 5.91671 15.5858 5.91671 16C5.91671 16.4142 6.25249 16.75 6.66671 16.75V15.25ZM18.8506 23.2098L25.8506 16.5431L24.8161 15.4569L17.8161 22.1236L18.8506 23.2098ZM25.8506 15.4569L18.8506 8.79025L17.8161 9.87646L24.8161 16.5431L25.8506 15.4569ZM25.3334 15.25L6.66671 15.25V16.75L25.3334 16.75V15.25Z" fill="black"/>
</svg>
