<svg width="24" height="25" viewBox="0 0 24 25" fill="none" xmlns="http://www.w3.org/2000/svg">
<path d="M10.7672 8.0431C11.0672 7.75744 11.0788 7.28271 10.7931 6.98276C10.5074 6.68281 10.0327 6.67123 9.73276 6.9569L10.7672 8.0431ZM4.48276 11.9569C4.18281 12.2426 4.17123 12.7173 4.4569 13.0172C4.74256 13.3172 5.21729 13.3288 5.51724 13.0431L4.48276 11.9569ZM5.51724 11.9569C5.21729 11.6712 4.74256 11.6828 4.4569 11.9828C4.17123 12.2827 4.18281 12.7574 4.48276 13.0431L5.51724 11.9569ZM9.73276 18.0431C10.0327 18.3288 10.5074 18.3172 10.7931 18.0172C11.0788 17.7173 11.0672 17.2426 10.7672 16.9569L9.73276 18.0431ZM5 11.75C4.58579 11.75 4.25 12.0858 4.25 12.5C4.25 12.9142 4.58579 13.25 5 13.25V11.75ZM19 13.25C19.4142 13.25 19.75 12.9142 19.75 12.5C19.75 12.0858 19.4142 11.75 19 11.75V13.25ZM9.73276 6.9569L4.48276 11.9569L5.51724 13.0431L10.7672 8.0431L9.73276 6.9569ZM4.48276 13.0431L9.73276 18.0431L10.7672 16.9569L5.51724 11.9569L4.48276 13.0431ZM5 13.25H19V11.75H5V13.25Z" fill="#010101"/>
</svg>
