<svg width="505" height="410" viewBox="0 0 505 410" fill="none" xmlns="http://www.w3.org/2000/svg">
<g clip-path="url(#clip0_73_1311)">
<path d="M403.154 74.6825C400.531 103.616 393.057 134.125 381.336 163.562C366.842 199.964 347.038 232.028 324.067 256.285L322.792 255.173C345.652 231.032 365.366 199.11 379.8 162.858C392.844 130.098 400.603 96.0054 402.248 64.2823L403.877 64.5553C403.704 67.9057 403.463 71.2814 403.154 74.6825Z" fill="#F2F2F2"/>
<path d="M413.602 242.723C381.337 294.106 342.193 330.82 303.379 346.1L302.594 344.659C341.139 329.485 380.054 292.959 412.172 241.81L413.602 242.723Z" fill="#F2F2F2"/>
<path d="M402.371 110.706C399.748 139.639 392.274 170.148 380.553 199.585C366.059 235.988 346.255 268.051 323.284 292.309L322.009 291.196C344.869 267.055 364.583 235.133 379.017 198.881C392.061 166.121 399.82 132.029 401.465 100.306L403.094 100.579C402.921 103.929 402.68 107.305 402.371 110.706Z" fill="#F2F2F2"/>
<path d="M40.1552 184.987H18.9854C18.5332 184.988 18.0865 184.886 17.679 184.69C17.2716 184.493 16.9138 184.207 16.6326 183.853C16.3548 183.507 16.1589 183.103 16.0594 182.671C15.9599 182.238 15.9596 181.789 16.0583 181.357C18.0745 172.451 17.9479 163.194 15.6888 154.347C15.5459 153.765 15.5804 153.153 15.788 152.59C15.9955 152.027 16.3665 151.54 16.8533 151.19C27.7388 143.353 36.3115 143.58 42.3335 151.867C42.605 152.245 42.7853 152.68 42.8603 153.139C44.4693 162.822 44.5584 172.697 43.1243 182.407C43.0246 183.124 42.6689 183.78 42.123 184.255C41.5771 184.729 40.878 184.989 40.1552 184.987Z" fill="#E6E6E6"/>
<path d="M33.592 163.766H26.3095C25.9068 163.766 25.5206 163.606 25.2358 163.321C24.9511 163.036 24.7911 162.649 24.7911 162.246C24.7911 161.843 24.9511 161.456 25.2358 161.171C25.5206 160.886 25.9068 160.726 26.3095 160.726H33.592C33.9941 160.727 34.3795 160.887 34.6636 161.172C34.9476 161.457 35.1072 161.843 35.1072 162.246C35.1072 162.648 34.9476 163.034 34.6636 163.319C34.3795 163.604 33.9941 163.765 33.592 163.766Z" fill="white"/>
<path d="M33.592 169.096H26.3095C25.9068 169.096 25.5206 168.936 25.2358 168.651C24.9511 168.366 24.7911 167.979 24.7911 167.576C24.7911 167.173 24.9511 166.787 25.2358 166.502C25.5206 166.217 25.9068 166.056 26.3095 166.056H33.592C33.9941 166.057 34.3795 166.218 34.6636 166.503C34.9476 166.788 35.1072 167.174 35.1072 167.576C35.1072 167.979 34.9476 168.365 34.6636 168.65C34.3795 168.935 33.9941 169.095 33.592 169.096Z" fill="white"/>
<path d="M33.592 174.427H26.3095C25.9068 174.427 25.5206 174.267 25.2358 173.982C24.9511 173.697 24.7911 173.31 24.7911 172.907C24.7911 172.504 24.9511 172.117 25.2358 171.832C25.5206 171.547 25.9068 171.387 26.3095 171.387H33.592C33.9941 171.388 34.3795 171.548 34.6636 171.833C34.9476 172.118 35.1072 172.504 35.1072 172.907C35.1072 173.309 34.9476 173.696 34.6636 173.98C34.3795 174.265 33.9941 174.426 33.592 174.427Z" fill="white"/>
<path d="M424.894 279.603H403.725C403.272 279.604 402.826 279.503 402.418 279.306C402.011 279.11 401.653 278.824 401.372 278.469C401.094 278.123 400.898 277.719 400.799 277.287C400.699 276.855 400.699 276.406 400.797 275.973C402.814 267.068 402.687 257.81 400.428 248.964C400.285 248.381 400.32 247.769 400.527 247.206C400.735 246.644 401.106 246.156 401.592 245.806C412.478 237.969 421.051 238.197 427.073 246.483C427.344 246.861 427.524 247.297 427.599 247.756C429.208 257.439 429.298 267.314 427.863 277.024C427.764 277.74 427.408 278.397 426.862 278.871C426.316 279.345 425.617 279.606 424.894 279.603Z" fill="#E6E6E6"/>
<path d="M418.331 258.382H411.049C410.646 258.381 410.261 258.221 409.977 257.936C409.693 257.651 409.533 257.265 409.533 256.862C409.533 256.46 409.693 256.074 409.977 255.789C410.261 255.504 410.646 255.343 411.049 255.342H418.331C418.734 255.342 419.12 255.503 419.405 255.788C419.69 256.073 419.849 256.459 419.849 256.862C419.849 257.265 419.69 257.652 419.405 257.937C419.12 258.222 418.734 258.382 418.331 258.382Z" fill="white"/>
<path d="M418.331 263.713H411.049C410.646 263.712 410.261 263.551 409.977 263.266C409.693 262.981 409.533 262.595 409.533 262.193C409.533 261.79 409.693 261.404 409.977 261.119C410.261 260.834 410.646 260.674 411.049 260.673H418.331C418.734 260.673 419.12 260.833 419.405 261.118C419.69 261.403 419.849 261.79 419.849 262.193C419.849 262.596 419.69 262.983 419.405 263.268C419.12 263.553 418.734 263.713 418.331 263.713Z" fill="white"/>
<path d="M418.331 269.043H411.049C410.646 269.042 410.261 268.882 409.977 268.597C409.693 268.312 409.533 267.926 409.533 267.523C409.533 267.121 409.693 266.735 409.977 266.45C410.261 266.165 410.646 266.004 411.049 266.003H418.331C418.734 266.003 419.12 266.164 419.405 266.449C419.69 266.734 419.849 267.12 419.849 267.523C419.849 267.926 419.69 268.313 419.405 268.598C419.12 268.883 418.734 269.043 418.331 269.043Z" fill="white"/>
<path d="M505 409.207C505 409.311 504.98 409.415 504.94 409.511C504.901 409.607 504.842 409.695 504.769 409.768C504.695 409.842 504.608 409.901 504.511 409.94C504.415 409.98 504.312 410 504.208 410H0.792111C0.582031 410 0.380562 409.916 0.232013 409.768C0.0834632 409.619 0 409.417 0 409.207C0 408.997 0.0834632 408.795 0.232013 408.646C0.380562 408.498 0.582031 408.414 0.792111 408.414H504.208C504.312 408.414 504.415 408.434 504.511 408.474C504.608 408.514 504.695 408.572 504.769 408.646C504.842 408.719 504.901 408.807 504.94 408.903C504.98 409 505 409.103 505 409.207Z" fill="#CCCCCC"/>
<path d="M132.797 360.659L131.477 342.277C122.828 337.949 113.254 335.8 103.587 336.016C117.188 346.539 116.098 367.571 125.517 381.965C128.489 386.432 132.427 390.172 137.039 392.908C141.651 395.644 146.82 397.306 152.161 397.771L163.479 404.289C164.774 395.723 164.198 386.978 161.792 378.656C159.385 370.334 155.204 362.633 149.538 356.084C146.323 352.442 142.663 349.219 138.643 346.492C136.169 353.603 132.797 360.659 132.797 360.659Z" fill="#F2F2F2"/>
<path d="M372.203 363.325L373.523 344.942C382.172 340.614 391.746 338.465 401.413 338.681C387.812 349.204 388.902 370.236 379.483 384.63C376.511 389.097 372.573 392.837 367.961 395.573C363.348 398.309 358.18 399.971 352.839 400.436L341.52 406.954C340.226 398.388 340.802 389.643 343.208 381.321C345.615 372.999 349.796 365.298 355.462 358.749C358.677 355.107 362.337 351.884 366.357 349.158C368.831 356.268 372.203 363.325 372.203 363.325Z" fill="#F2F2F2"/>
<path d="M246.509 155.879C253.494 155.879 259.156 150.211 259.156 143.219C259.156 136.227 253.494 130.559 246.509 130.559C239.524 130.559 233.862 136.227 233.862 143.219C233.862 150.211 239.524 155.879 246.509 155.879Z" fill="#B6BE28"/>
<path d="M253.001 137.943C252.811 137.761 252.558 137.66 252.295 137.66C252.032 137.66 251.78 137.761 251.589 137.943C248.906 140.085 246.496 142.55 244.413 145.281C243.901 144.29 243.39 143.3 242.879 142.309C242.288 141.166 240.565 142.176 241.154 143.318C241.902 144.767 242.65 146.216 243.398 147.664C243.488 147.812 243.615 147.934 243.766 148.019C243.917 148.104 244.087 148.148 244.26 148.148C244.433 148.148 244.604 148.104 244.755 148.019C244.905 147.934 245.032 147.812 245.122 147.664C247.342 144.535 249.995 141.738 253.001 139.356C253.187 139.168 253.291 138.914 253.291 138.649C253.291 138.385 253.187 138.131 253.001 137.943Z" fill="white"/>
<path d="M189.92 179.118L170.848 149.137L192.933 137.297L198.729 160.172L239.57 182.263C241.182 181.682 242.928 181.584 244.596 181.979C246.263 182.375 247.78 183.247 248.96 184.491C250.141 185.734 250.935 187.294 251.245 188.981C251.555 190.668 251.368 192.409 250.706 193.992C250.045 195.574 248.938 196.93 247.52 197.894C246.103 198.857 244.435 199.387 242.722 199.419C241.009 199.45 239.323 198.982 237.871 198.071C236.419 197.16 235.263 195.846 234.544 194.289L189.92 179.118Z" fill="#A0616A"/>
<path d="M156.914 113.177C150.922 121.984 172.217 153.997 172.217 153.997C173.255 151.759 183.172 176.896 184.833 175.411C189.554 171.191 196.943 159.435 201.051 158.911C203.4 158.612 195.603 141.935 195.603 141.935C195.603 141.935 192.039 132.087 187.204 119.507C185.903 115.926 183.717 112.732 180.851 110.223C177.985 107.714 174.532 105.971 170.812 105.158C170.812 105.158 162.907 104.37 156.914 113.177Z" fill="#3F3D56"/>
<path d="M157.207 400.115L166.265 400.114L170.573 365.143L157.205 365.144L157.207 400.115Z" fill="#A0616A"/>
<path d="M154.896 397.155L157.446 397.155L167.399 393.103L172.734 397.154H172.735C175.749 397.154 178.64 398.353 180.772 400.487C182.904 402.621 184.102 405.515 184.102 408.533V408.903L154.897 408.904L154.896 397.155Z" fill="#2F2E41"/>
<path d="M199.286 400.115L208.344 400.114L212.653 365.143L199.285 365.144L199.286 400.115Z" fill="#A0616A"/>
<path d="M196.976 397.155L199.525 397.155L209.479 393.103L214.813 397.154H214.814C217.829 397.154 220.72 398.353 222.852 400.487C224.984 402.621 226.181 405.515 226.181 408.533V408.903L196.976 408.904L196.976 397.155Z" fill="#2F2E41"/>
<path d="M203.207 208.924L144.293 210.398C133.104 216.481 132.934 229.648 136.6 245.281C136.6 245.281 135.363 254.573 137.838 257.05C140.313 259.528 141.551 259.528 140.313 263.864C139.075 268.2 145.614 275.282 144.82 276.078C144.026 276.873 142.17 281.209 142.17 281.209L148.358 316.517C148.358 316.517 152.689 377.842 153.927 379.08C155.165 380.319 156.402 379.08 155.165 382.178C153.927 385.275 152.689 384.036 153.927 385.275C155.023 386.458 156.056 387.699 157.021 388.992H171.982C171.982 388.992 173.11 382.797 173.11 382.178C173.11 381.558 174.348 377.842 174.348 377.222C174.348 376.603 173.254 375.508 173.254 375.508C172.876 374.248 172.621 372.956 172.491 371.647C172.491 370.408 168.779 322.711 168.779 322.711L176.204 260.767L194.15 321.472C194.15 321.472 194.15 374.744 195.388 375.983C196.625 377.222 196.625 376.603 196.006 379.08C195.388 381.558 192.912 380.939 194.769 382.797C196.625 384.655 197.244 381.558 196.625 384.655L196.006 387.753L214.571 388.018C214.571 388.018 217.046 382.797 215.808 380.939C214.571 379.08 214.645 379.588 216.155 376.547C217.665 373.506 218.284 372.886 217.665 372.267C217.046 371.647 217.046 368.352 217.046 368.352L213.952 309.084C213.952 309.084 213.333 246.52 213.333 244.662C213.287 243.705 213.463 242.751 213.847 241.875V239.352L211.477 230.414L203.207 208.924Z" fill="#2F2E41"/>
<path d="M167.816 86.2975C177.926 86.2975 186.121 78.0938 186.121 67.9741C186.121 57.8543 177.926 49.6507 167.816 49.6507C157.707 49.6507 149.512 57.8543 149.512 67.9741C149.512 78.0938 157.707 86.2975 167.816 86.2975Z" fill="#A0616A"/>
<path d="M176.969 98.408C180.912 100.755 183.271 105.067 184.626 109.455C187.133 117.578 188.642 125.977 189.12 134.466L190.55 159.88L208.264 213.994C192.912 226.998 135.204 216.949 135.204 216.949C135.204 216.949 133.433 216.358 135.204 214.585C136.976 212.812 138.7 214.383 136.929 212.609C135.157 210.836 136.378 212.812 136.969 211.038C137.559 209.265 136.969 210.447 136.378 209.856C135.788 209.265 140.95 203.946 140.95 203.946L136.226 172.884L130.321 110.23C137.407 101.363 151.657 96.1368 151.657 96.1368L155.339 89.5023L173.75 90.9766L176.969 98.408Z" fill="#3F3D56"/>
<path d="M182.906 58.2392C184.329 59.3013 185.383 60.7835 185.92 62.4768C186.126 59.7095 186.139 56.9312 185.959 54.1621C185.743 52.2162 184.375 51.7785 182.79 51.2713C181.359 50.8131 179.74 50.2955 179.305 48.4065C173.551 42.8032 163.534 43.0858 156.679 45.0403C152.907 46.1158 150.737 47.4977 150.543 48.3072L150.502 48.4738L150.349 48.5505C147.442 50.0058 146.876 54.6012 146.913 58.1999C146.984 64.9802 149.322 72.6809 150.64 73.3065C150.71 73.3396 150.727 73.3267 150.758 73.3015C152.741 71.7145 155.162 73.4221 156.225 74.3503C156.853 70.1363 158.873 66.2542 161.963 63.3241C165.053 60.3941 169.034 58.585 173.272 58.1859C174.656 58.052 176.029 57.8216 177.381 57.4963C178.066 57.3187 178.771 57.2261 179.479 57.2206C180.699 57.202 181.894 57.5575 182.906 58.2392Z" fill="#2F2E41"/>
<path d="M296.54 223.524L331.752 187.731L341.029 159.104L326.1 153.059C318.705 160.527 311.092 183.387 311.092 183.387L287.059 215.675C286.867 215.746 286.675 215.822 286.487 215.911C285.38 216.434 284.427 217.234 283.72 218.233C283.012 219.233 282.574 220.398 282.448 221.616C282.322 222.835 282.512 224.065 283 225.188C283.488 226.312 284.256 227.29 285.232 228.029C286.208 228.768 287.358 229.243 288.571 229.407C289.783 229.571 291.018 229.419 292.154 228.966C293.291 228.513 294.292 227.775 295.061 226.821C295.829 225.868 296.338 224.732 296.54 223.524Z" fill="#FFB8B8"/>
<path d="M322.028 156.334L340.907 161.801L340.978 161.788C347.918 160.439 353.407 148.894 356.79 139.447C357.903 136.331 357.792 132.908 356.481 129.871C355.169 126.833 352.754 124.408 349.724 123.084C347.483 122.123 345.017 121.809 342.606 122.176C340.196 122.544 337.936 123.58 336.082 125.166L326.669 133.28L322.028 156.334Z" fill="#B6BE28"/>
<path d="M305.875 399.052L295.721 399.051L290.891 359.848L305.876 359.849L305.875 399.052Z" fill="#FFB8B8"/>
<path d="M308.465 395.733L305.607 395.733L294.449 391.191L288.469 395.732H288.468C285.089 395.732 281.848 397.076 279.458 399.469C277.068 401.861 275.726 405.105 275.726 408.488V408.902L308.464 408.904L308.465 395.733Z" fill="#2F2E41"/>
<path d="M350.927 399.052L340.774 399.051L335.944 359.848L350.929 359.849L350.927 399.052Z" fill="#FFB8B8"/>
<path d="M353.518 395.733L350.66 395.733L339.502 391.191L333.522 395.732H333.521C330.141 395.732 326.9 397.076 324.511 399.469C322.121 401.861 320.778 405.105 320.778 408.488V408.902L353.517 408.904L353.518 395.733Z" fill="#2F2E41"/>
<path d="M366.409 230.191C366.409 230.191 367.595 244.432 364.631 258.081C361.667 271.729 361.667 310.166 361.667 310.166L355.146 385.067L335.584 383.287L330.249 258.081L311.279 300.212L313.058 306.146L310.689 307.629C310.689 307.629 312.465 319.2 311.279 319.2C310.094 319.2 307.13 320.981 307.13 320.981L309.501 382.101L289.346 381.507L282.232 295.465L289.939 246.213L290.531 236.718L293.199 236.828L294.557 232.861L297.052 226.037L366.409 230.191Z" fill="#2F2E41"/>
<path d="M367.434 233.182L367.54 233.034C373.182 225.126 364.696 206.124 363.416 203.369L368.807 201.618L367.593 191.289L367.018 186.683L371.138 182.559L371.15 182.456L373.521 161.687L376.968 147.893C378.268 142.678 378.157 137.211 376.648 132.053C375.139 126.895 372.286 122.232 368.381 118.543L360.412 111.022L350.727 96.6766H335.109L329.754 106.802C324.562 108.003 319.955 110.99 316.737 115.241C313.519 119.492 311.892 124.739 312.141 130.067L313.354 156.623L308.603 189.688L308.6 195.672L303.253 201.62L304.421 207.464L300.351 209.21L298.554 217.603C297.811 218.585 292.903 225.136 292.903 226.927C292.903 227.196 293.101 227.456 293.526 227.744C296.871 230.012 315.359 234.634 323.542 231.356C332.258 227.868 366.905 233.101 367.254 233.154L367.434 233.182Z" fill="#B6BE28"/>
<path d="M340.9 92.0458C352.324 92.0458 361.585 82.7757 361.585 71.3405C361.585 59.9053 352.324 50.6352 340.9 50.6352C329.477 50.6352 320.216 59.9053 320.216 71.3405C320.216 82.7757 329.477 92.0458 340.9 92.0458Z" fill="#FFB8B8"/>
<path d="M338.919 92.3811C342.122 92.3483 345.317 92.0417 348.468 91.4646C351.588 90.7452 358.471 85.4174 360.347 82.2699C361.741 79.9313 362.577 76.3142 363.034 73.6917C363.65 70.221 363.531 66.6595 362.685 63.2377C361.839 59.8159 360.284 56.6101 358.122 53.828C357.288 52.6624 356.155 51.7441 354.843 51.1701C354.727 51.1281 354.608 51.0913 354.487 51.0603C352.585 50.6116 350.861 49.604 349.535 48.1669C349.277 47.876 348.999 47.604 348.703 47.353C347.216 46.161 345.468 45.3382 343.602 44.9519C340.587 44.2273 336.275 45.1353 330.786 47.6532C328.028 48.9182 324.967 48.5653 322.608 48.1165C322.476 48.0945 322.34 48.1075 322.214 48.1542C322.088 48.201 321.977 48.2799 321.891 48.3831C320.917 49.3469 319.615 49.906 318.246 49.948C317.408 50.0065 316.559 51.1916 315.534 52.7347C315.302 53.085 315.031 53.4939 314.834 53.7434L314.794 53.2748L314.334 53.8105C313.609 54.6525 313.109 55.6643 312.881 56.7517C312.652 57.8391 312.702 58.9667 313.026 60.0296C313.35 61.0924 313.937 62.0559 314.734 62.8303C315.53 63.6048 316.509 64.1649 317.579 64.4587C318.429 64.6615 319.296 64.7771 320.169 64.8035C320.698 64.8374 321.246 64.8724 321.771 64.9498C323.46 65.2507 325.041 65.9846 326.362 67.0801C327.682 68.1755 328.696 69.595 329.305 71.1999C329.449 71.5708 329.676 71.9036 329.969 72.1728C330.261 72.4419 330.612 72.6401 330.993 72.7521C331.374 72.8641 331.776 72.8869 332.168 72.8187C332.559 72.7505 332.93 72.5932 333.251 72.3588C333.785 71.9198 334.418 71.6167 335.094 71.4752C335.771 71.3337 336.472 71.3582 337.137 71.5464C337.715 71.849 338.172 72.3415 338.43 72.9412C338.743 73.6088 339.248 74.1679 339.879 74.5473C342.033 75.5892 342.304 80.4445 341.646 84.5148C341.011 88.4382 339.629 91.3003 338.286 91.4747C337.252 91.6089 337.135 91.6857 337.065 91.8711L337.002 92.0372L337.123 92.1878C337.701 92.3808 338.313 92.4467 338.919 92.3811Z" fill="#2F2E41"/>
<path d="M321.758 158.549L311.816 145.867C301.688 148.659 283.718 164.692 283.718 164.692L246.814 180.724C245.583 180.516 244.318 180.638 243.148 181.075C241.978 181.513 240.944 182.251 240.15 183.216C239.355 184.181 238.829 185.338 238.623 186.571C238.418 187.804 238.54 189.07 238.979 190.241C239.417 191.411 240.156 192.446 241.121 193.24C242.086 194.034 243.243 194.559 244.475 194.764C245.707 194.968 246.971 194.844 248.14 194.403C249.309 193.963 250.342 193.222 251.134 192.255L299.477 178.755L321.758 158.549Z" fill="#FFB8B8"/>
<path d="M319.375 161.448L335.063 143.942L335.934 131.538C336.096 129.102 335.574 126.67 334.428 124.515C333.281 122.36 331.556 120.57 329.446 119.345C326.575 117.705 323.188 117.217 319.972 117.981C316.755 118.744 313.948 120.701 312.118 123.457C306.575 131.82 300.611 143.127 303.68 149.501L303.711 149.566L319.375 161.448Z" fill="#B6BE28"/>
<path d="M174.783 227.246L134.01 206.343C131.109 204.856 130.149 200.912 131.868 197.552L158.453 145.59C160.173 142.23 163.931 140.705 166.831 142.192L207.604 163.095C210.505 164.582 211.465 168.526 209.746 171.886L183.161 223.848C181.442 227.208 177.683 228.733 174.783 227.246Z" fill="#E6E6E6"/>
<path d="M167.816 217.637L140.114 203.435C137.398 202.042 136.498 198.349 138.109 195.201L160.195 152.033C161.805 148.885 165.325 147.458 168.042 148.85L201.5 166.003C204.216 167.396 205.116 171.089 203.505 174.236L191.507 197.688C184.334 211.707 179.915 223.839 167.816 217.637Z" fill="white"/>
<path d="M181.513 194.062L156.976 181.483C156.676 181.269 156.463 180.954 156.376 180.596C156.289 180.238 156.333 179.86 156.501 179.532C156.669 179.204 156.949 178.947 157.291 178.808C157.632 178.67 158.012 178.659 158.361 178.778L182.897 191.357C183.197 191.571 183.41 191.886 183.497 192.244C183.585 192.602 183.54 192.98 183.372 193.308C183.204 193.636 182.924 193.893 182.583 194.031C182.241 194.17 181.862 194.181 181.513 194.062Z" fill="#B6BE28"/>
<path d="M159.841 189.699L154.242 186.829C153.942 186.615 153.728 186.3 153.641 185.942C153.554 185.583 153.598 185.206 153.766 184.877C153.934 184.549 154.214 184.292 154.556 184.154C154.897 184.015 155.277 184.004 155.626 184.123L161.225 186.994C161.525 187.208 161.738 187.523 161.826 187.881C161.913 188.239 161.869 188.617 161.701 188.945C161.533 189.273 161.252 189.53 160.911 189.669C160.57 189.807 160.19 189.818 159.841 189.699Z" fill="#B6BE28"/>
<path d="M167.023 200.129L151.507 192.174C151.207 191.96 150.994 191.645 150.906 191.287C150.819 190.929 150.863 190.551 151.031 190.223C151.199 189.895 151.479 189.638 151.821 189.499C152.162 189.361 152.542 189.35 152.891 189.468L168.408 197.423C168.708 197.637 168.921 197.952 169.008 198.311C169.095 198.669 169.051 199.047 168.883 199.375C168.715 199.703 168.435 199.96 168.093 200.098C167.752 200.237 167.372 200.248 167.023 200.129Z" fill="#B6BE28"/>
<path d="M191.222 175.084L166.686 162.505C166.386 162.291 166.173 161.976 166.086 161.618C165.998 161.26 166.043 160.882 166.211 160.554C166.379 160.226 166.659 159.969 167 159.831C167.342 159.692 167.722 159.681 168.07 159.8L192.607 172.379C192.907 172.593 193.12 172.908 193.207 173.266C193.294 173.624 193.25 174.002 193.082 174.33C192.914 174.658 192.634 174.915 192.292 175.054C191.951 175.192 191.571 175.203 191.222 175.084Z" fill="#B6BE28"/>
<path d="M169.551 170.721L163.951 167.851C163.651 167.637 163.438 167.322 163.351 166.964C163.264 166.605 163.308 166.228 163.476 165.899C163.644 165.571 163.924 165.314 164.265 165.176C164.607 165.037 164.987 165.027 165.335 165.145L170.935 168.016C171.235 168.23 171.448 168.545 171.535 168.903C171.623 169.261 171.578 169.639 171.41 169.967C171.242 170.295 170.962 170.552 170.621 170.691C170.279 170.829 169.899 170.84 169.551 170.721Z" fill="#B6BE28"/>
<path d="M176.733 181.151L161.216 173.196C160.916 172.982 160.703 172.667 160.616 172.309C160.529 171.951 160.573 171.573 160.741 171.245C160.909 170.917 161.189 170.66 161.531 170.521C161.872 170.383 162.252 170.372 162.601 170.491L178.117 178.445C178.417 178.659 178.63 178.974 178.718 179.333C178.805 179.691 178.761 180.069 178.593 180.397C178.425 180.725 178.145 180.982 177.803 181.12C177.462 181.259 177.082 181.27 176.733 181.151Z" fill="#B6BE28"/>
<path d="M140.996 182.008L131.785 147.682L156.4 143.018L155.076 166.579L187.418 199.914C189.13 199.844 190.826 200.274 192.298 201.152C193.77 202.03 194.955 203.318 195.709 204.858C196.463 206.399 196.752 208.126 196.543 209.828C196.333 211.531 195.633 213.135 194.528 214.446C193.423 215.758 191.961 216.718 190.32 217.212C188.678 217.706 186.929 217.711 185.285 217.226C183.641 216.742 182.174 215.789 181.061 214.485C179.949 213.18 179.24 211.579 179.021 209.878L140.996 182.008Z" fill="#A0616A"/>
<path d="M129.266 109.195C120.911 115.797 131.634 152.73 131.634 152.73C133.295 150.906 135.224 177.863 137.254 176.945C143.021 174.336 153.593 165.34 157.669 166.074C160 166.493 157.558 148.243 157.558 148.243C157.558 148.243 157.109 137.779 156.264 124.327C156.096 120.519 154.968 116.816 152.986 113.562C151.003 110.308 148.231 107.609 144.926 105.717C144.926 105.717 137.621 102.592 129.266 109.195Z" fill="#3F3D56"/>
<path d="M268.288 258.199L246.038 247.682C245.563 247.458 245.143 247.13 244.813 246.721C244.482 246.312 244.248 245.833 244.128 245.321C244.007 244.819 244.002 244.297 244.112 243.794C244.221 243.29 244.444 242.818 244.762 242.412C251.207 234.167 255.632 224.524 257.684 214.258C257.839 213.472 258.261 212.764 258.879 212.255C259.498 211.746 260.273 211.467 261.073 211.466C272.421 211.505 280.902 215.652 286.28 223.792C286.563 224.216 286.751 224.696 286.83 225.199C286.91 225.703 286.878 226.218 286.738 226.708C283.624 237.451 278.886 247.655 272.688 256.963C272.228 257.667 271.528 258.179 270.719 258.407C269.911 258.634 269.047 258.56 268.288 258.199Z" fill="#E6E6E6"/>
<path d="M274.834 243.448L257.821 235.407C257.398 235.207 257.071 234.846 256.913 234.405C256.755 233.964 256.779 233.478 256.979 233.055C257.179 232.631 257.538 232.304 257.979 232.146C258.42 231.988 258.905 232.012 259.328 232.212L276.341 240.253C276.55 240.352 276.738 240.492 276.894 240.664C277.05 240.835 277.17 241.036 277.248 241.255C277.327 241.473 277.361 241.705 277.35 241.936C277.339 242.168 277.282 242.395 277.183 242.605C277.084 242.815 276.945 243.003 276.773 243.159C276.601 243.315 276.401 243.435 276.183 243.514C275.964 243.592 275.733 243.626 275.502 243.615C275.27 243.604 275.043 243.547 274.834 243.448Z" fill="white"/>
<path d="M277.476 237.846L260.464 229.804C260.041 229.604 259.714 229.244 259.556 228.803C259.398 228.362 259.422 227.876 259.622 227.452C259.821 227.029 260.181 226.702 260.622 226.544C261.062 226.386 261.548 226.409 261.971 226.609L278.983 234.651C279.407 234.851 279.733 235.211 279.891 235.652C280.049 236.093 280.026 236.579 279.826 237.003C279.626 237.426 279.266 237.753 278.826 237.911C278.385 238.069 277.9 238.046 277.476 237.846Z" fill="white"/>
<path d="M254.744 61.9772L253.16 62.1508C246.099 34.376 232.414 15.1339 213.58 6.50435C189.639 -4.4653 160.034 2.90102 130.22 27.2467C100.254 51.7166 73.726 90.3685 55.5236 136.084L53.9871 135.38C72.2693 89.465 98.9332 50.6263 129.067 26.0203C159.352 1.28996 189.561 -6.13038 214.129 5.12649C233.502 14.0033 247.546 33.662 254.744 61.9772Z" fill="#F2F2F2"/>
<path d="M80.0311 98.1503C75.8897 106.883 71.9506 115.931 68.3231 125.041C47.4483 177.468 36.8699 231.01 37.7343 279.882L36.1028 279.707C35.2375 230.654 45.8464 176.928 66.7865 124.337C70.4245 115.201 74.3748 106.128 78.5281 97.3705L80.0311 98.1503Z" fill="#F2F2F2"/>
<path d="M79.248 134.174C75.1067 142.907 71.1675 151.954 67.54 161.065C46.6652 213.492 36.0868 267.034 36.9512 315.905L35.3198 315.731C34.4544 266.678 45.0633 212.951 66.0034 160.361C69.6414 151.225 73.5917 142.152 77.745 133.394L79.248 134.174Z" fill="#F2F2F2"/>
<path d="M35.3982 147.275C37.2017 144.561 36.1342 140.677 33.0139 138.599C29.8936 136.521 25.902 137.036 24.0985 139.75C22.295 142.463 23.3625 146.347 26.4828 148.425C29.6031 150.504 33.5947 149.988 35.3982 147.275Z" fill="#CCCCCC"/>
<path d="M419.433 245.269C421.237 242.555 420.169 238.671 417.049 236.593C413.928 234.515 409.937 235.03 408.133 237.744C406.33 240.457 407.397 244.341 410.518 246.419C413.638 248.498 417.63 247.982 419.433 245.269Z" fill="#CCCCCC"/>
</g>
<defs>
<clipPath id="clip0_73_1311">
<rect width="505" height="410" fill="white"/>
</clipPath>
</defs>
</svg>
