<svg width="24" height="25" viewBox="0 0 24 25" fill="none" xmlns="http://www.w3.org/2000/svg">
<path d="M6 12.25C5.58579 12.25 5.25 12.5858 5.25 13C5.25 13.4142 5.58579 13.75 6 13.75V12.25ZM18 13.75C18.4142 13.75 18.75 13.4142 18.75 13C18.75 12.5858 18.4142 12.25 18 12.25V13.75ZM6 16.25C5.58579 16.25 5.25 16.5858 5.25 17C5.25 17.4142 5.58579 17.75 6 17.75V16.25ZM18 17.75C18.4142 17.75 18.75 17.4142 18.75 17C18.75 16.5858 18.4142 16.25 18 16.25V17.75ZM6 8.25C5.58579 8.25 5.25 8.58579 5.25 9C5.25 9.41421 5.58579 9.75 6 9.75V8.25ZM18 9.75C18.4142 9.75 18.75 9.41421 18.75 9C18.75 8.58579 18.4142 8.25 18 8.25V9.75ZM6 13.75H18V12.25H6V13.75ZM6 17.75H18V16.25H6V17.75ZM6 9.75H18V8.25H6V9.75Z" fill="#010101"/>
</svg>
